<?xml version="1.0" encoding="UTF-8"?>
<svg xmlns="http://www.w3.org/2000/svg" width="51" height="65" viewBox="0 0 51 65" fill="none">
  <g clip-path="url(#clip0_82_1276)">
    <path d="M9.83086 27.4425H5.75598V30.9481H9.68833V32.1925H5.75598V38.0639H4.4458V26.1963H9.83086V27.4425Z" fill="black"></path>
    <path d="M24.5626 1.64258V12.308H28.4036V13.5579H23.0186V1.64258H24.5626Z" fill="black"></path>
    <path d="M43.5117 31.9502L40.3468 26.2312H41.8324L44.2719 30.6893L46.7826 26.2312H48.2682L45.032 31.9502L48.4436 38.0767H46.958L44.2536 33.2112L41.5126 38.0767H40.027L43.5099 31.9502H43.5117Z" fill="black"></path>
    <path d="M18.8943 59.404L18.2785 59.3948L18.4978 59.0112L19.3054 59.0222L19.2525 62.7003L18.8468 62.6948L18.8943 59.4022V59.404Z" fill="black"></path>
    <path d="M19.3219 62.772L18.7792 62.7646L18.8267 59.4719L18.1634 59.4628L18.4612 58.9434L19.3767 58.9562L19.3219 62.772ZM18.9181 62.6288L19.1867 62.6325L19.236 59.092L18.538 59.0829L18.3973 59.3288L18.9637 59.3361L18.9162 62.6288H18.9181Z" fill="black"></path>
    <path d="M20.7874 62.2378C20.5517 61.8817 20.4311 61.4045 20.4384 60.8815C20.4457 60.3584 20.5791 59.8848 20.8258 59.5361C21.1108 59.1323 21.4818 58.9947 21.7723 58.9984C22.0628 59.002 22.4283 59.1507 22.7042 59.5637C22.9399 59.9197 23.0605 60.3969 23.0532 60.92C23.0459 61.4431 22.9125 61.9166 22.6658 62.2653C22.3808 62.6691 22.0098 62.8068 21.7193 62.8031C21.4288 62.7994 21.0633 62.6508 20.7874 62.2378ZM21.1291 59.7711C20.9263 60.0831 20.8495 60.5015 20.844 60.887C20.8385 61.2724 20.9043 61.6927 21.098 62.0102C21.2862 62.3222 21.5366 62.425 21.723 62.4269C21.9093 62.4287 22.1633 62.3332 22.3607 62.0286C22.5635 61.7166 22.6403 61.2999 22.6457 60.9127C22.6512 60.5254 22.5854 60.1069 22.3917 59.7894C22.2035 59.4774 21.9532 59.3746 21.7668 59.3728C21.5804 59.3709 21.3264 59.4664 21.1291 59.7711Z" fill="black"></path>
    <path d="M21.7303 62.8729H21.7175C21.5384 62.871 21.0834 62.8068 20.7308 62.2764C20.4877 61.9093 20.3635 61.4266 20.3708 60.8815C20.3781 60.3345 20.517 59.8573 20.771 59.4976C21.1383 58.9782 21.5878 58.9286 21.7742 58.9305C21.9532 58.9323 22.4082 58.9965 22.7609 59.527C23.0039 59.894 23.1282 60.3767 23.1209 60.9219C23.1136 61.4688 22.9747 61.946 22.7207 62.3057C22.3625 62.8141 21.9167 62.8729 21.7303 62.8729ZM20.8441 62.2011C21.1602 62.6765 21.5622 62.7334 21.7193 62.7352C21.8783 62.737 22.2803 62.693 22.6092 62.2268C22.8468 61.8909 22.9765 61.4376 22.9838 60.92C22.9911 60.4006 22.8742 59.9454 22.6458 59.6022C22.3297 59.1269 21.9276 59.07 21.7705 59.0681C21.6134 59.0681 21.2113 59.1103 20.8806 59.5765C20.6431 59.9124 20.5133 60.3657 20.506 60.8833C20.4987 61.4009 20.6156 61.8579 20.8441 62.2011ZM21.7303 62.4984H21.723C21.5987 62.4984 21.2808 62.4489 21.0396 62.0488C20.8148 61.678 20.7728 61.2137 20.7764 60.8888C20.7801 60.564 20.8367 60.1014 21.0725 59.7362C21.3246 59.3434 21.6462 59.3086 21.7687 59.3067C21.8929 59.3067 22.2109 59.3563 22.4521 59.7564C22.6787 60.1271 22.7189 60.5915 22.7152 60.9164C22.7097 61.2412 22.6549 61.7037 22.4192 62.069C22.1707 62.4544 21.8619 62.4984 21.7321 62.4984H21.7303ZM21.7595 59.4425C21.6536 59.4425 21.3977 59.4811 21.1876 59.8096C21.0177 60.0721 20.9208 60.4557 20.9135 60.8888C20.908 61.322 20.9939 61.7074 21.1565 61.9754C21.363 62.3186 21.6225 62.3571 21.7248 62.359C21.829 62.3571 22.0866 62.3278 22.3041 61.9919C22.474 61.7294 22.5709 61.3458 22.5782 60.9127C22.5836 60.4795 22.4978 60.0941 22.3351 59.8261C22.1287 59.4829 21.8692 59.4425 21.7668 59.4425H21.7614H21.7595Z" fill="black"></path>
    <path d="M23.9047 62.2837C23.669 61.9276 23.5484 61.4504 23.5557 60.9274C23.563 60.4043 23.6964 59.9307 23.9431 59.582C24.2282 59.1782 24.5991 59.0406 24.8897 59.0443C25.1802 59.0479 25.5457 59.1966 25.8216 59.6096C26.0573 59.9656 26.1779 60.4428 26.1706 60.9659C26.1633 61.489 26.0299 61.9625 25.7832 62.3112C25.4982 62.715 25.1272 62.8527 24.8367 62.849C24.5461 62.8453 24.1807 62.6967 23.9047 62.2837ZM24.2465 59.817C24.0436 60.129 23.9669 60.5474 23.9614 60.9329C23.9559 61.3183 24.0217 61.7386 24.2154 62.0561C24.4036 62.3681 24.6539 62.4709 24.8403 62.4727C25.0267 62.4746 25.2807 62.3791 25.4781 62.0745C25.6809 61.7625 25.7576 61.3458 25.7631 60.9586C25.7686 60.5713 25.7028 60.1528 25.5091 59.8353C25.3209 59.5233 25.0706 59.4205 24.8842 59.4187C24.6978 59.4168 24.4438 59.5123 24.2465 59.817Z" fill="black"></path>
    <path d="M24.8477 62.9168H24.8349C24.6558 62.915 24.2008 62.8507 23.8481 62.3203C23.6051 61.9532 23.4808 61.4705 23.4882 60.9254C23.4955 60.3785 23.6343 59.9013 23.8883 59.5415C24.2556 59.0221 24.7161 58.9726 24.8915 58.9744C25.0706 58.9762 25.5256 59.0405 25.8783 59.5709C26.1213 59.938 26.2456 60.4207 26.2382 60.9658C26.2309 61.5109 26.0921 61.9899 25.8381 62.3497C25.4799 62.8581 25.0341 62.9168 24.8477 62.9168ZM23.9614 62.2451C24.2776 62.7204 24.6796 62.7773 24.8367 62.7792H24.8477C25.0121 62.7792 25.405 62.7259 25.7266 62.2708C25.9642 61.933 26.0939 61.4815 26.1012 60.964C26.1085 60.4464 25.9916 59.9894 25.765 59.6462C25.4489 59.1708 25.0468 59.1139 24.8897 59.1121C24.7307 59.1139 24.3305 59.1543 23.9998 59.6205C23.7623 59.9563 23.6325 60.4097 23.6252 60.9273C23.6179 61.4448 23.7348 61.9018 23.9633 62.2451H23.9614ZM24.8477 62.5424H24.8404C24.7161 62.5424 24.3982 62.4928 24.157 62.0927C23.9304 61.722 23.8902 61.2576 23.8938 60.9328C23.8993 60.6079 23.9541 60.1454 24.1898 59.7801C24.4384 59.3947 24.7472 59.3507 24.8769 59.3507H24.8842C25.0085 59.3507 25.3264 59.4002 25.5676 59.8003C25.7942 60.1711 25.8344 60.6354 25.8308 60.9603C25.8253 61.2852 25.7705 61.7477 25.5347 62.1129C25.2862 62.4983 24.9774 62.5424 24.8477 62.5424ZM24.8769 59.4865C24.7709 59.4865 24.5169 59.525 24.305 59.8536C24.135 60.116 24.0382 60.4996 24.0309 60.9328C24.0236 61.3659 24.1113 61.7513 24.2739 62.0193C24.4804 62.3625 24.7399 62.4011 24.8422 62.4029C24.939 62.4029 25.204 62.3717 25.4214 62.0358C25.5914 61.7734 25.6901 61.3898 25.6955 60.9566C25.701 60.5235 25.6151 60.138 25.4525 59.8701C25.246 59.5269 24.9865 59.4865 24.8842 59.4865H24.8787H24.8769Z" fill="black"></path>
    <path d="M29.0907 61.8265C29.0833 62.3992 28.7014 62.9021 27.9559 62.8911C27.2104 62.88 26.8431 62.368 26.8504 61.7935C26.8559 61.3971 27.0423 61.063 27.4168 60.9033C27.1281 60.729 26.9783 60.4335 26.9838 60.0921C26.9911 59.569 27.3492 59.0771 28.0089 59.0863C28.6686 59.0955 29.0121 59.5965 29.0048 60.1215C28.9993 60.4628 28.8421 60.7528 28.548 60.9199C28.9189 61.0905 29.0961 61.4301 29.0907 61.8265ZM28.685 61.81C28.6905 61.3971 28.3981 61.1052 27.9815 61.0997C27.5649 61.0942 27.2634 61.3769 27.2579 61.7898C27.2524 62.2028 27.5393 62.5111 27.9614 62.5166C28.3835 62.5221 28.6795 62.2285 28.685 61.81ZM28.621 60.1215C28.6265 59.7195 28.3396 59.4662 28.0052 59.4626C27.6708 59.4571 27.3767 59.7012 27.3693 60.1049C27.3639 60.4684 27.6288 60.7437 27.987 60.7473C28.3451 60.751 28.6174 60.4867 28.621 60.1215Z" fill="black"></path>
    <path d="M27.9778 62.961C27.9778 62.961 27.9613 62.961 27.954 62.961C27.5849 62.9554 27.2798 62.8306 27.0696 62.6012C26.8796 62.3938 26.7773 62.1075 26.7827 61.7936C26.7882 61.3935 26.9691 61.0723 27.2834 60.8943C27.044 60.7053 26.9125 60.419 26.9161 60.0923C26.9234 59.5563 27.2962 59.0186 27.9906 59.0186C27.9979 59.0186 28.0034 59.0186 28.0107 59.0186C28.7197 59.0277 29.0815 59.582 29.0742 60.1235C29.0687 60.452 28.9298 60.7346 28.685 60.9145C28.9938 61.1017 29.1655 61.4284 29.1601 61.8285C29.1528 62.3957 28.7836 62.961 27.9796 62.961H27.9778ZM27.9888 59.1562C27.3547 59.1562 27.0587 59.6408 27.0514 60.0941C27.0459 60.419 27.1884 60.6869 27.4515 60.8448L27.5667 60.9145L27.4424 60.9677C27.1098 61.1091 26.9234 61.4046 26.9161 61.7955C26.9125 62.0726 27.002 62.3259 27.1683 62.5076C27.3529 62.7095 27.6233 62.8178 27.954 62.8233C28.7306 62.8306 29.0139 62.2929 29.0194 61.8267C29.0248 61.4339 28.8458 61.1347 28.5168 60.9842L28.3944 60.9273L28.5114 60.8613C28.7782 60.7089 28.928 60.4465 28.9335 60.1216C28.9408 59.6628 28.6521 59.1654 28.0052 59.1562C27.9997 59.1562 27.9924 59.1562 27.9869 59.1562H27.9888ZM27.9723 62.5865C27.9723 62.5865 27.9632 62.5865 27.9595 62.5865C27.499 62.5792 27.1811 62.2525 27.1884 61.79C27.1957 61.3421 27.5137 61.032 27.9668 61.032C27.9723 61.032 27.976 61.032 27.9815 61.032C28.4419 61.0393 28.7599 61.3587 28.7526 61.812C28.7453 62.2708 28.4255 62.5865 27.9723 62.5865ZM27.9668 61.1696C27.5922 61.1696 27.3291 61.4247 27.3236 61.7918C27.3181 62.1736 27.5794 62.4434 27.9595 62.4489H27.9705C28.3451 62.4489 28.6082 62.1883 28.6137 61.8102C28.6192 61.4376 28.3579 61.1751 27.9778 61.1696C27.9741 61.1696 27.9705 61.1696 27.9668 61.1696ZM27.9942 60.8172H27.9833C27.5868 60.8117 27.2926 60.5052 27.298 60.1051C27.3017 59.8977 27.3766 59.7123 27.5137 59.582C27.6434 59.459 27.8097 59.3948 28.0034 59.3948C28.4054 59.4003 28.6941 59.7068 28.6868 60.1235C28.6813 60.5199 28.3835 60.8172 27.9942 60.8172ZM27.9942 59.5325C27.8481 59.5325 27.711 59.5857 27.6105 59.6811C27.5009 59.7857 27.4406 59.9326 27.4369 60.1051C27.4333 60.4281 27.669 60.6741 27.9869 60.6777H27.9961C28.3085 60.6777 28.5479 60.4391 28.5534 60.1198C28.5589 59.738 28.2811 59.5343 28.0034 59.5306H27.9942V59.5325Z" fill="black"></path>
    <path d="M29.9202 60.5657L30.3149 60.5712L30.3113 60.8135C30.441 60.6281 30.6402 60.5199 30.8814 60.5235C31.2925 60.529 31.4533 60.8245 31.4972 60.9016C31.7219 60.5566 32.0344 60.54 32.1879 60.5419C32.864 60.5511 32.9207 61.12 32.917 61.4467L32.8969 62.8967L32.5022 62.8912L32.5223 61.5018C32.526 61.243 32.4986 60.8998 32.124 60.8943C31.669 60.8869 31.6123 61.3274 31.6087 61.6046L31.5904 62.8783L31.1957 62.8728L31.2158 61.5165C31.2176 61.3568 31.2304 60.8814 30.8138 60.8759C30.3643 60.8686 30.3076 61.3366 30.304 61.6137L30.2857 62.86L29.891 62.8545L29.9239 60.5657H29.9202Z" fill="black"></path>
    <path d="M32.9646 62.9665L32.4328 62.9591L32.4529 61.5C32.4529 61.3844 32.4511 61.2394 32.4017 61.1311C32.3506 61.0191 32.2629 60.9659 32.1222 60.9641C31.9413 60.9641 31.8298 61.0302 31.7567 61.1752C31.7055 61.2798 31.6781 61.4211 31.6763 61.6065L31.658 62.95L31.1263 62.9426L31.1464 61.5165C31.15 61.2504 31.1153 60.9512 30.812 60.9457C30.5233 60.9421 30.3771 61.1605 30.3716 61.6156L30.3533 62.9316L29.8216 62.9243L29.8563 60.4979L30.3881 60.5052V60.6337C30.5215 60.5163 30.6932 60.4575 30.8851 60.4575C31.0715 60.4594 31.32 60.5218 31.5045 60.7824C31.7567 60.4704 32.082 60.474 32.1934 60.4759C32.515 60.4814 32.7435 60.6043 32.8714 60.8466C32.9536 61.0008 32.992 61.199 32.9883 61.4505L32.9664 62.9702L32.9646 62.9665ZM32.5717 62.8233L32.8293 62.827L32.8494 61.445C32.8531 61.2174 32.8202 61.0412 32.7489 60.9072C32.6448 60.7108 32.462 60.6135 32.1898 60.6099C32.0856 60.608 31.775 60.6043 31.5557 60.9384L31.4936 61.0338L31.4388 60.9347C31.3145 60.7108 31.1281 60.5952 30.8833 60.5915C30.664 60.5915 30.4886 60.6814 30.3698 60.8521L30.2419 61.0357L30.2474 60.6374L29.9897 60.6337L29.9586 62.7848L30.2163 62.7885L30.2327 61.6101C30.2419 60.9457 30.5452 60.8044 30.8029 60.8044H30.812C31.1299 60.8081 31.2889 61.0448 31.2834 61.5074L31.2652 62.8013L31.5228 62.805L31.5393 61.5991C31.5429 61.3917 31.574 61.2321 31.6343 61.1091C31.7293 60.9182 31.8919 60.8228 32.124 60.8228C32.3177 60.8264 32.4529 60.909 32.526 61.0724C32.5863 61.2064 32.5918 61.3715 32.59 61.5L32.5717 62.8215V62.8233Z" fill="black"></path>
    <path d="M2.30245 64.8569C1.77436 64.477 1.19693 64.1521 0.730969 63.708C-0.131517 62.8857 -0.24481 61.823 0.475147 60.8741C1.93151 58.9525 3.43538 57.0639 4.94473 55.1845C8.13337 51.2127 11.3366 47.2538 14.5344 43.2875C14.6587 43.1333 14.7683 42.97 14.9309 42.7498C14.3352 42.8782 13.8071 42.9883 13.2809 43.1058C13.0927 43.148 12.9355 43.1554 12.8807 42.9186C12.8332 42.7149 12.7181 42.5056 13.0232 42.3882C13.2224 42.3111 14.2493 42.0009 14.4467 41.9146C15.4481 41.4797 15.5157 41.1053 16.316 40.3527C16.4512 40.2243 16.6669 40.1857 16.8332 40.0848C16.9629 40.0077 17.0981 39.9196 17.1895 39.804C21.9679 33.738 26.4959 27.4849 31.0788 21.2721C34.8924 16.1019 38.4465 10.7517 42.1431 5.5007C43.1463 4.07645 44.2098 2.69441 45.2641 1.30502C45.7593 0.651627 46.3569 0.0881655 47.2175 0.0165857C47.6268 -0.0182866 48.1129 0.00557341 48.4528 0.200124C49.1289 0.589224 49.7831 1.05358 50.3422 1.59685C51.0896 2.32366 51.2211 3.35331 50.6565 4.30771C50.0937 5.2621 49.4322 6.16695 48.7305 7.0259C46.1431 10.1919 43.499 13.3102 40.9188 16.4836C37.5109 20.6756 34.1103 24.8713 30.7736 29.1202C27.3219 33.516 23.9505 37.9741 20.5535 42.412C20.4549 42.5424 20.4439 42.7424 20.4 42.9131C20.3745 43.014 20.3946 43.137 20.3471 43.2233C20.1369 43.6014 19.5613 44.8568 19.2415 45.9323C19.0442 46.5985 19.099 47.2005 18.9985 47.3419C18.898 47.4832 18.5417 47.4263 18.4412 47.3309C18.3407 47.2354 18.3443 46.9619 18.3425 46.839C18.337 46.3765 18.3352 45.9121 18.3297 45.334C18.1269 45.6019 17.9807 45.7873 17.8455 45.9763C14.1251 51.1613 10.4084 56.3481 6.68432 61.5312C6.13613 62.2929 5.54591 63.0234 4.99589 63.7832C4.48059 64.4972 3.83921 64.9615 2.9347 64.9854C2.72456 64.9432 2.51442 64.901 2.3061 64.8587L2.30245 64.8569ZM26.1908 32.9213C26.2182 32.9525 26.2456 32.9855 26.2748 33.0167C26.4192 32.9727 26.622 32.9745 26.7006 32.8754C27.0697 32.4184 27.426 31.9467 27.7458 31.453C28.082 30.9336 28.3452 30.3719 28.3159 29.7241C28.2885 29.1037 27.8975 28.7531 27.3347 28.9826C26.8066 29.1991 26.2949 29.5313 25.8801 29.9241C25.4014 30.3793 25.0359 30.9574 24.6229 31.4823C24.6083 31.5007 24.612 31.5319 24.6065 31.5594C24.6778 31.6457 24.7509 31.7356 24.8294 31.8311C24.5023 32.2606 24.1862 32.6735 23.8719 33.0901C23.3639 33.7656 23.3749 33.8628 24.0108 34.3951C24.5005 34.8044 24.8075 34.7548 25.1949 34.2244C25.5183 33.7821 25.8582 33.3526 26.1908 32.9158V32.9213Z" fill="black"></path>
    <path d="M26.1907 32.9211C25.8581 33.3561 25.5183 33.7874 25.1948 34.2298C24.8074 34.7584 24.4986 34.8097 24.0107 34.4005C23.3748 33.8682 23.362 33.7691 23.8719 33.0955C24.1862 32.6789 24.5023 32.2659 24.8294 31.8364C24.7508 31.741 24.6777 31.6511 24.6064 31.5648C24.6119 31.5373 24.6101 31.5042 24.6229 31.4877C25.0359 30.9628 25.4013 30.3846 25.8801 29.9295C26.2949 29.5367 26.8065 29.2027 27.3346 28.9879C27.8956 28.7585 28.2866 29.109 28.3159 29.7294C28.3451 30.3773 28.082 30.9371 27.7457 31.4583C27.4278 31.9521 27.0696 32.4219 26.7005 32.8808C26.6219 32.978 26.4191 32.9762 26.2748 33.0221C26.2474 32.9909 26.2199 32.9578 26.1907 32.9266V32.9211Z" fill="white"></path>
    <path d="M34.4117 17.1388L34.9362 16.3606L38.028 19.734L37.4469 20.4553L34.4117 17.1388Z" fill="white"></path>
    <path d="M34.0828 17.5647L37.1125 20.8427L36.8786 21.118L33.8745 17.8327L34.0828 17.5647Z" fill="white"></path>
    <path d="M18.0793 39.5671L20.2118 39.0679C20.2118 39.0679 20.5425 41.5254 20.4932 41.7402C20.4438 41.9549 20.3762 41.9145 20.082 42.2981C19.7878 42.6817 17.5165 45.4128 17.5165 45.4128L16.0802 46.9453L14.2639 47.217L13.8692 45.3265C13.8692 45.3265 17.3118 40.0828 17.5183 39.8626C17.7248 39.6423 18.0793 39.5671 18.0793 39.5671Z" fill="white"></path>
    <path d="M14.2274 47.2703L13.8199 45.3193L13.8309 45.3028C13.9716 45.088 17.2771 40.0536 17.4855 39.8315C17.6992 39.6058 18.0483 39.5268 18.0684 39.5232L20.2502 39.0129L20.2575 39.0625C20.2922 39.3158 20.5882 41.5348 20.537 41.7513C20.5042 41.8908 20.4621 41.9367 20.3744 42.0285C20.3159 42.089 20.2355 42.1735 20.1168 42.3276C19.8262 42.7076 17.5713 45.4166 17.5494 45.4441L16.1004 46.9913L14.2255 47.2703H14.2274ZM13.9167 45.3377L14.2986 47.1675L16.0565 46.9051L17.4818 45.3835C17.5019 45.3579 19.755 42.6507 20.0455 42.2726C20.1661 42.1147 20.2483 42.0285 20.3086 41.9661C20.3927 41.878 20.4219 41.8486 20.4475 41.733C20.4822 41.5843 20.305 40.1123 20.1716 39.1267L18.0866 39.6149C18.0866 39.6149 17.7449 39.6884 17.5494 39.8958C17.3521 40.105 14.125 45.0183 13.9149 45.3377H13.9167Z" fill="black"></path>
    <path d="M14.5947 46.6682L15.057 43.5995L17.8199 42.3716L17.3265 45.3724L14.5947 46.67V46.6682ZM15.3877 43.8527L15.0588 46.0423L16.9976 45.121L17.3484 42.9809L15.3877 43.8527Z" fill="black"></path>
    <path d="M17.5859 43.6985L17.3813 43.3938L20.2191 41.463C19.6563 41.5547 18.7645 41.6593 18.5087 41.4685C18.2767 41.2923 17.9971 40.5618 17.8399 40.1011L16.9555 43.0854L16.6047 42.9808L17.6115 39.5854L18.0519 39.5688L18.0939 39.701C18.2913 40.3287 18.591 41.0684 18.728 41.1711C18.8705 41.2592 19.7147 41.1821 20.4128 41.0555L20.5772 41.0261L20.7234 41.5621L17.5878 43.6966L17.5859 43.6985Z" fill="black"></path>
    <path d="M21.9952 31.6786C21.9952 31.6786 21.1017 30.4764 20.6741 29.9001C17.8564 26.1045 15.0697 22.2832 12.21 18.5189C9.39048 14.8059 6.49238 11.1553 3.64362 7.46438C3.0333 6.67333 2.46318 5.84741 1.91682 5.00864C1.67561 4.63973 1.48923 4.21576 1.37228 3.78995C1.17493 3.07232 1.33391 2.39322 1.82545 1.82976C2.42298 1.14517 3.14659 0.616576 3.99811 0.304562C4.72904 0.036596 5.44899 0.161402 6.04287 0.649613C6.47228 1.00384 6.87429 1.42781 7.18493 1.89033C9.43068 5.25275 11.6417 8.63719 13.8783 12.0051C16.9975 16.7019 24.9755 27.8004 24.9755 27.8004L21.997 31.6804L21.9952 31.6786Z" fill="black"></path>
    <path d="M15.1885 14.7199L14.6988 13.938L11.5504 17.1462L12.0985 17.8749L15.1885 14.7199Z" fill="white"></path>
    <path d="M15.6161 15.2612L12.5334 18.3777L12.7527 18.6548L15.8116 15.5292L15.6161 15.2612Z" fill="white"></path>
    <path d="M46.7899 64.9999C45.8982 64.9632 45.2806 64.4897 44.8 63.7665C42.8027 60.7602 40.8092 57.7538 38.7955 54.7585C36.7014 51.6438 34.5835 48.5439 32.4767 45.4384C32.4401 45.3852 32.3981 45.3375 32.3067 45.2237C32.283 45.7523 32.261 46.9912 32.2007 47.1747C32.1404 47.3582 31.6873 47.3325 31.5923 47.2004C31.5502 47.1398 31.627 46.4717 31.4241 45.6844C31.1811 44.741 30.6421 43.6269 30.4575 43.1956C30.3972 43.0543 30.3899 42.8927 30.3533 42.7404C30.3131 42.5734 30.3058 42.377 30.2145 42.243C29.3337 40.9619 27.5539 38.4144 27.5539 38.4144L26.0482 36.4194C26.0482 36.4194 28.6905 33.134 28.7362 33.0845C28.9774 33.4112 29.3867 33.9324 29.6188 34.2573C30.9564 36.1165 32.2885 37.9794 33.6333 39.835C33.7211 39.9561 33.8892 40.0222 34.0262 40.1048C34.1139 40.158 34.2364 40.169 34.3021 40.2388C34.6822 40.6444 35.298 41.3657 35.9156 41.7511C36.8384 42.3238 37.7539 42.5 37.8014 42.6119C37.8818 42.7973 37.7356 43.1056 37.6315 43.1644C37.5419 43.2158 37.3939 43.1901 37.1363 43.1258C36.6977 43.0176 36.2592 42.9056 35.7073 42.7661C36.0966 43.2984 36.4127 43.7425 36.7398 44.1793C40.61 49.3258 44.482 54.4703 48.3504 59.6204C48.6593 60.0297 48.9315 60.4665 49.2312 60.885C50.1613 62.1863 49.6497 63.3774 48.641 64.1244C48.2335 64.4254 47.7694 64.6493 47.3326 64.91C47.1517 64.9393 46.969 64.9705 46.7881 64.9999H46.7899Z" fill="black"></path>
    <path d="M29.8672 40.7381L29.997 38.5815C29.997 38.5815 32.3944 38.9578 32.5808 39.0642C32.769 39.1707 32.7105 39.2239 32.9883 39.6094C33.266 39.9948 35.1902 42.9094 35.1902 42.9094L36.2244 44.697L35.9704 46.4902L34.0883 46.3342C34.0883 46.3342 30.1359 41.6099 29.9878 41.3511C29.8398 41.0942 29.8672 40.7381 29.8672 40.7381Z" fill="white"></path>
    <path d="M36.0088 46.5378L34.0646 46.3763L34.0518 46.3616C33.891 46.1689 30.0957 41.63 29.9458 41.373C29.7924 41.1087 29.8179 40.7564 29.8198 40.7343L29.9513 38.5264L30.0007 38.5337C30.2473 38.5723 32.4109 38.9136 32.6009 39.0219C32.7233 39.0917 32.7544 39.1449 32.8147 39.2532C32.8567 39.3266 32.9116 39.4257 33.023 39.5799C33.2989 39.9616 35.2066 42.8524 35.2249 42.8817L36.2683 44.6859V44.7024L36.0052 46.5378H36.0088ZM34.1103 46.2882L35.9321 46.4387L36.1788 44.7043L35.1518 42.9294C35.1336 42.9019 33.2277 40.0149 32.9536 39.6331C32.8403 39.4753 32.7818 39.3725 32.7398 39.2991C32.6813 39.1944 32.6612 39.1596 32.5607 39.1027C32.431 39.0274 31.002 38.7833 30.0409 38.6328L29.9148 40.7417C29.9148 40.7417 29.8892 41.0849 30.0281 41.3272C30.1688 41.5713 33.8691 45.9982 34.1121 46.2882H34.1103Z" fill="black"></path>
    <path d="M35.552 46.0277L32.7964 44.7283L32.4182 41.7642L35.1006 43.0746L35.552 46.0296V46.0277ZM33.1345 44.4805L35.0878 45.4019L34.7681 43.3187L32.8677 42.39L33.1345 44.4805Z" fill="black"></path>
    <path d="M32.6539 43.093L29.8307 41.2595L29.7996 40.6813L29.9988 40.6887C30.6457 40.7107 31.4241 40.6703 31.552 40.5749C31.6799 40.4758 31.954 39.6957 32.1276 39.0276L32.1477 38.9487L32.5351 38.7468L33.6041 42.3644L33.2532 42.469L32.3761 39.4993C32.2318 39.9894 31.9924 40.7033 31.7695 40.8704C31.5209 41.0557 30.6639 41.0686 30.1943 41.0612L32.8494 42.7865L32.6502 43.0948L32.6539 43.093Z" fill="black"></path>
  </g>
  <defs>
    <clipPath id="clip0_82_1276">
      <rect width="51" height="65" fill="white"></rect>
    </clipPath>
  </defs>
</svg>
